<svg width="19" height="19" viewBox="0 0 19 19" fill="none" xmlns="http://www.w3.org/2000/svg">
<path d="M12.6601 9.18L17.8796 3.96044C18.5201 3.31993 18.5201 2.28144 17.8796 1.6404L16.7196 0.480385C16.0791 -0.160128 15.0406 -0.160128 14.3996 0.480385L9.18 5.69995L3.96044 0.480385C3.31993 -0.160128 2.28144 -0.160128 1.6404 0.480385L0.480385 1.6404C-0.160128 2.28092 -0.160128 3.3194 0.480385 3.96044L5.69995 9.18L0.480385 14.3996C-0.160128 15.0401 -0.160128 16.0786 0.480385 16.7196L1.6404 17.8796C2.28092 18.5201 3.31993 18.5201 3.96044 17.8796L9.18 12.6601L14.3996 17.8796C15.0401 18.5201 16.0791 18.5201 16.7196 17.8796L17.8796 16.7196C18.5201 16.0791 18.5201 15.0406 17.8796 14.3996L12.6601 9.18Z" fill="white"/>
</svg>
