<svg width="52" height="33" viewBox="0 0 52 33" fill="none" xmlns="http://www.w3.org/2000/svg">
<path d="M51.4228 23.2271L43.1565 31.4934C42.387 32.2628 41.1395 32.2628 40.37 31.4934L32.1036 23.2271C31.334 22.4575 31.334 21.21 32.1036 20.4405L32.9921 19.5519C33.7772 18.7669 35.0555 18.7851 35.8179 19.5923L39.136 23.1056V8.15366H23.7382C23.2156 8.15364 22.7145 7.94606 22.3449 7.57658L21.0313 6.26298C19.79 5.02163 20.6692 2.89926 22.4246 2.89926H42.42C43.5082 2.89926 44.3904 3.78142 44.3904 4.86966V23.1056L47.7086 19.5923C48.4709 18.7852 49.7492 18.7669 50.5344 19.5519L51.4229 20.4405C52.1924 21.21 52.1924 22.4576 51.4228 23.2271ZM29.655 24.494C29.472 24.311 29.2548 24.1658 29.0157 24.0668C28.7767 23.9678 28.5204 23.9169 28.2617 23.9169H12.864V8.96489L16.1821 12.4781C16.9445 13.2852 18.2228 13.3036 19.0079 12.5184L19.8964 11.6299C20.666 10.8604 20.666 9.61283 19.8964 8.84338L11.6301 0.577143C10.8606 -0.192381 9.61299 -0.192381 8.84355 0.577143L0.577143 8.84347C-0.192381 9.61299 -0.192381 10.8606 0.577143 11.63L1.46563 12.5185C2.25067 13.3036 3.52905 13.2853 4.29143 12.4782L7.60959 8.96489V27.2009C7.60959 28.2891 8.49175 29.1713 9.57999 29.1713H29.5754C31.3308 29.1713 32.21 27.0489 30.9687 25.8076L29.655 24.494Z" fill="white"/>
</svg>
