<svg width="52" height="52" viewBox="0 0 52 52" fill="none" xmlns="http://www.w3.org/2000/svg">
<path d="M13.8734 14.096C12.8533 14.3844 11.9193 14.9177 11.1526 15.6497C10.386 16.3817 9.80992 17.29 9.47472 18.2956L0 46.7188L1.49195 48.2107L16.7374 32.9652C16.4337 32.3295 16.2499 31.6267 16.2499 30.8751C16.2499 28.1827 18.4325 26.0001 21.1249 26.0001C23.8173 26.0001 25.9999 28.1827 25.9999 30.8751C25.9999 33.5675 23.8173 35.7501 21.1249 35.7501C20.3733 35.7501 19.6705 35.5662 19.0347 35.2626L3.78928 50.5081L5.28122 52L33.7044 42.5253C34.71 42.1901 35.6183 41.614 36.3503 40.8474C37.0823 40.0807 37.6156 39.1467 37.904 38.1266L42.2498 22.7501L29.2499 9.75021L13.8734 14.096ZM50.5718 7.53311L44.4669 1.42822C42.5626 -0.476072 39.4741 -0.476072 37.5698 1.42822L31.8265 7.17155L44.8285 20.1735L50.5718 14.4302C52.4761 12.5259 52.4761 9.43841 50.5718 7.53311Z" fill="white"/>
</svg>
