<svg width="52" height="52" viewBox="0 0 52 52" fill="none" xmlns="http://www.w3.org/2000/svg">
<path d="M0 22.2857H22.2857V0H0V22.2857ZM7.42857 7.42857H14.8571V14.8571H7.42857V7.42857ZM29.7143 0V22.2857H52V0H29.7143ZM44.5714 14.8571H37.1429V7.42857H44.5714V14.8571ZM0 52H22.2857V29.7143H0V52ZM7.42857 37.1429H14.8571V44.5714H7.42857V37.1429ZM48.2857 29.7143H52V44.5714H40.8571V40.8571H37.1429V52H29.7143V29.7143H40.8571V33.4286H48.2857V29.7143ZM48.2857 48.2857H52V52H48.2857V48.2857ZM40.8571 48.2857H44.5714V52H40.8571V48.2857Z" fill="white"/>
</svg>
