<svg width="53" height="43" viewBox="0 0 53 43" fill="none" xmlns="http://www.w3.org/2000/svg">
<path d="M20.8139 22.1217C21.324 22.6314 22.1507 22.6314 22.6608 22.1217L23.5838 21.1995C24.0939 20.6898 24.0939 19.8638 23.5838 19.3542L20.6686 16.4423L23.583 13.5296C24.0931 13.0199 24.0931 12.1939 23.583 11.6842L22.66 10.762C22.1499 10.2523 21.3231 10.2523 20.8131 10.762L16.0517 15.5192C15.5416 16.0288 15.5416 16.8549 16.0517 17.3645L20.8139 22.1217ZM28.6496 21.2003L29.5726 22.1226C30.0827 22.6322 30.9095 22.6322 31.4195 22.1226L36.1809 17.3653C36.6909 16.8557 36.6909 16.0297 36.1809 15.52L31.4195 10.7628C30.9095 10.2532 30.0827 10.2532 29.5726 10.7628L28.6496 11.685C28.1395 12.1947 28.1395 13.0207 28.6496 13.5304L31.564 16.4423L28.6496 19.355C28.1395 19.8646 28.1395 20.6907 28.6496 21.2003ZM50.9268 34.7079H31.1388C31.0784 36.3233 29.9382 37.3173 28.4668 37.3173H23.5047C21.9793 37.3173 20.8098 35.8927 20.8302 34.7079H1.30581C0.587617 34.7079 0 35.295 0 36.0126V37.3173C0 40.1876 2.35047 42.536 5.22326 42.536H47.0093C49.8821 42.536 52.2326 40.1876 52.2326 37.3173V36.0126C52.2326 35.295 51.645 34.7079 50.9268 34.7079ZM47.0093 4.70008C47.0093 2.54734 45.2465 0.786011 43.0919 0.786011H9.1407C6.98611 0.786011 5.22326 2.54734 5.22326 4.70008V32.0985H47.0093V4.70008ZM41.7861 26.8798H10.4465V6.00476H41.7861V26.8798Z" fill="white"/>
</svg>
