<svg width="52" height="47" viewBox="0 0 52 47" fill="none" xmlns="http://www.w3.org/2000/svg">
<path d="M52 21.6667C52 19.5334 50.8309 17.6908 49.1111 16.6906V2.88979C49.1111 2.09986 48.481 0 46.2222 0C45.5794 0 44.9412 0.214861 44.4185 0.63375L36.7421 6.77535C32.8864 9.85743 28.0457 11.5556 23.1111 11.5556H5.77778C2.58646 11.5556 0 14.142 0 17.3333V26C0 29.1913 2.58646 31.7778 5.77778 31.7778H8.82014C8.69465 32.7239 8.62333 33.6862 8.62333 34.6667C8.62333 38.257 9.45931 41.6497 10.9308 44.6821C11.3994 45.6472 12.4222 46.2222 13.4947 46.2222H20.2006C22.5523 46.2222 23.9642 43.5283 22.5387 41.6578C21.0582 39.715 20.178 37.2919 20.178 34.6667C20.178 33.6637 20.3242 32.6995 20.5761 31.7778H23.1111C28.0457 31.7778 32.8864 33.4759 36.7412 36.558L44.4176 42.6996C44.9295 43.1093 45.5656 43.3328 46.2213 43.3333C48.471 43.3333 49.1102 41.2768 49.1102 40.4444V26.6437C50.8309 25.6425 52 23.7999 52 21.6667ZM43.3333 34.4338L40.3497 32.0468C35.4747 28.1468 29.3511 26 23.1111 26V17.3333C29.3511 17.3333 35.4747 15.1865 40.3497 11.2865L43.3333 8.89958V34.4338Z" fill="white"/>
</svg>
