<svg width="52" height="47" viewBox="0 0 52 47" fill="none" xmlns="http://www.w3.org/2000/svg">
<path d="M47.6775 27.2024L51.9452 8.42463C52.2533 7.06884 51.2228 5.77778 49.8324 5.77778H14.3729L13.5455 1.73243C13.3393 0.724118 12.452 0 11.4228 0H2.16667C0.970035 0 0 0.970035 0 2.16667V3.61111C0 4.80774 0.970035 5.77778 2.16667 5.77778H8.47555L14.8174 36.7823C13.3002 37.6549 12.2778 39.2909 12.2778 41.1667C12.2778 43.9588 14.5412 46.2222 17.3333 46.2222C20.1254 46.2222 22.3889 43.9588 22.3889 41.1667C22.3889 39.7517 21.8069 38.4732 20.8701 37.5556H39.7965C38.8598 38.4732 38.2778 39.7517 38.2778 41.1667C38.2778 43.9588 40.5412 46.2222 43.3333 46.2222C46.1255 46.2222 48.3889 43.9588 48.3889 41.1667C48.3889 39.165 47.2254 37.4353 45.538 36.6162L46.0361 34.4246C46.3442 33.0688 45.3137 31.7778 43.9233 31.7778H19.6911L19.1003 28.8889H45.5647C46.5764 28.8889 47.4534 28.1889 47.6775 27.2024Z" fill="white"/>
</svg>
