<?xml version="1.0" encoding="UTF-8"?>
<!DOCTYPE svg PUBLIC "-//W3C//DTD SVG 1.1//EN" "http://www.w3.org/Graphics/SVG/1.1/DTD/svg11.dtd">
<svg xmlns="http://www.w3.org/2000/svg" version="1.1" width="2311px" height="1922px" style="shape-rendering:geometricPrecision; text-rendering:geometricPrecision; image-rendering:optimizeQuality; fill-rule:evenodd; clip-rule:evenodd" xmlns:xlink="http://www.w3.org/1999/xlink">
<g><path style="opacity:0.997" fill="#fdfdfd" d="M 738.5,-0.5 C 753.5,-0.5 768.5,-0.5 783.5,-0.5C 871.968,4.53749 954.968,28.7042 1032.5,72C 1075.07,96.2526 1115.73,123.253 1154.5,153C 1192.84,185.001 1229.01,219.501 1263,256.5C 1311.36,311.588 1351.02,372.588 1382,439.5C 1398.59,476.617 1409.93,515.284 1416,555.5C 1419.61,579.36 1418.61,603.027 1413,626.5C 1405,654.323 1386.5,668.99 1357.5,670.5C 1329.89,668.132 1304.56,659.298 1281.5,644C 1227.89,603.846 1169.89,570.846 1107.5,545C 998.914,502.519 886.914,472.519 771.5,455C 710.586,444.856 649.253,439.523 587.5,439C 534.83,437.252 482.163,437.252 429.5,439C 401.87,439.996 374.537,443.329 347.5,449C 340.791,450.857 334.457,453.524 328.5,457C 322.918,461.739 322.085,467.239 326,473.5C 333.691,481.863 342.524,488.697 352.5,494C 375.251,505.693 398.584,516.026 422.5,525C 533.47,563.989 646.137,597.323 760.5,625C 760.833,625.333 761.167,625.667 761.5,626C 604.662,622.392 448.329,611.059 292.5,592C 228.501,584.334 165.168,573 102.5,558C 77.6176,551.706 53.6176,543.04 30.5,532C 20.5058,527.004 12.0058,520.17 5,511.5C 2.6512,507.259 0.817868,502.925 -0.5,498.5C -0.5,492.5 -0.5,486.5 -0.5,480.5C 7.36278,448.105 21.1961,418.438 41,391.5C 73.5649,349.257 109.398,309.757 148.5,273C 180.833,246 213.167,219 245.5,192C 309.957,145.985 378.291,105.985 450.5,72C 542.262,30.5597 638.262,6.39306 738.5,-0.5 Z"/></g>
<g><path style="opacity:0.994" fill="#fdfdfd" d="M 1137.5,1921.5 C 1089.17,1921.5 1040.83,1921.5 992.5,1921.5C 878.254,1919.48 764.254,1911.65 650.5,1898C 599.825,1891.78 549.825,1882.11 500.5,1869C 476.906,1862.69 454.24,1854.03 432.5,1843C 424.734,1838.23 417.901,1832.4 412,1825.5C 406.669,1815.48 407.669,1806.15 415,1797.5C 427.515,1786.65 441.682,1778.49 457.5,1773C 506.342,1756.29 556.342,1744.29 607.5,1737C 654.74,1730.27 702.073,1724.27 749.5,1719C 784.349,1701.05 821.182,1688.88 860,1682.5C 861.167,1682.67 862.333,1682.83 863.5,1683C 840.492,1688.17 819.158,1697.17 799.5,1710C 794.195,1714.3 790.028,1719.47 787,1725.5C 785.501,1734.34 788.334,1741.51 795.5,1747C 813.582,1758.81 833.249,1767.15 854.5,1772C 932.499,1789.94 1011.5,1798.78 1091.5,1798.5C 1063.87,1789.19 1039.2,1775.03 1017.5,1756C 1002.6,1741.77 988.437,1726.94 975,1711.5C 939.987,1659.79 914.987,1603.46 900,1542.5C 881.065,1467.56 868.398,1391.56 862,1314.5C 859.694,1289.86 857.694,1265.19 856,1240.5C 850.702,1152.87 846.035,1065.2 842,977.5C 838.552,907.57 832.218,837.903 823,768.5C 819.18,746.067 814.847,723.734 810,701.5C 808.577,694.878 807.91,688.211 808,681.5C 825.861,719.23 841.528,757.897 855,797.5C 910.449,948.296 949.116,1103.3 971,1262.5C 974.927,1294.84 978.927,1327.18 983,1359.5C 988.891,1405.4 1000.56,1449.73 1018,1492.5C 1030.14,1521.29 1048.31,1545.46 1072.5,1565C 1106.95,1586.51 1132.45,1578.68 1149,1541.5C 1156.07,1522.82 1160.07,1503.49 1161,1483.5C 1162.6,1438.93 1158.26,1394.93 1148,1351.5C 1139.69,1314.59 1129.36,1278.26 1117,1242.5C 1095.53,1183.09 1073.86,1123.76 1052,1064.5C 1016.68,962.2 986.011,858.533 960,753.5C 943.811,689.03 932.811,623.696 927,557.5C 926.639,547.159 926.139,536.826 925.5,526.5C 925.386,523.636 925.886,520.97 927,518.5C 956.976,631.436 996.643,740.769 1046,846.5C 1074.94,902.709 1103.6,959.042 1132,1015.5C 1202.67,1170.18 1253.67,1331.18 1285,1498.5C 1322.2,1416.73 1365.54,1338.73 1415,1264.5C 1454.67,1209.17 1494.33,1153.83 1534,1098.5C 1557.54,1058.09 1579.54,1016.75 1600,974.5C 1602.61,968.275 1604.94,961.942 1607,955.5C 1607.86,965.267 1607.19,974.934 1605,984.5C 1596.47,1020.75 1585.14,1056.08 1571,1090.5C 1545.01,1155.48 1516.01,1219.14 1484,1281.5C 1457.08,1329.01 1430.41,1376.67 1404,1424.5C 1388.59,1454.42 1374.92,1485.08 1363,1516.5C 1353.38,1542.33 1347.88,1569 1346.5,1596.5C 1346.15,1613.43 1350.32,1629.1 1359,1643.5C 1370.1,1656.92 1383.93,1660.76 1400.5,1655C 1408.95,1651.95 1416.61,1647.61 1423.5,1642C 1451.62,1614.84 1472.12,1582.67 1485,1545.5C 1493.56,1519.92 1500.56,1493.92 1506,1467.5C 1540.63,1348.24 1588.97,1234.91 1651,1127.5C 1659.25,1114.67 1667.25,1101.67 1675,1088.5C 1675.72,1086.74 1676.89,1085.91 1678.5,1086C 1665.86,1127.74 1654.69,1169.9 1645,1212.5C 1629,1294.5 1613,1376.5 1597,1458.5C 1587.32,1506.21 1574.99,1553.21 1560,1599.5C 1551.91,1622.94 1542.74,1645.94 1532.5,1668.5C 1533.03,1669.19 1533.69,1669.69 1534.5,1670C 1573.29,1675.41 1611.62,1683.08 1649.5,1693C 1673.4,1698.79 1695.73,1708.12 1716.5,1721C 1721.71,1724.91 1725.88,1729.75 1729,1735.5C 1731.55,1743.3 1730.55,1750.63 1726,1757.5C 1719.29,1763.72 1712.46,1769.72 1705.5,1775.5C 1719.45,1781.29 1731.95,1789.29 1743,1799.5C 1751.47,1813.16 1749.3,1824.99 1736.5,1835C 1721.4,1845.38 1705.06,1853.38 1687.5,1859C 1644.19,1873.86 1599.86,1884.53 1554.5,1891C 1459.64,1904.74 1364.3,1913.41 1268.5,1917C 1224.68,1918.72 1181.01,1920.22 1137.5,1921.5 Z"/></g>
<g><path style="opacity:0.996" fill="#fdfdfd" d="M 2310.5,1012.5 C 2310.5,1017.17 2310.5,1021.83 2310.5,1026.5C 2308.3,1037.35 2301.97,1044.85 2291.5,1049C 2270.48,1056.56 2248.81,1061.23 2226.5,1063C 2187.41,1066.52 2148.25,1068.35 2109,1068.5C 1982.17,1066.74 1855.67,1059.4 1729.5,1046.5C 1728.5,1046.17 1727.5,1045.83 1726.5,1045.5C 1781.81,1038.63 1837.14,1031.8 1892.5,1025C 1923.97,1020.84 1955.3,1015.84 1986.5,1010C 2005.41,1006.27 2024.07,1001.61 2042.5,996C 2051.49,993.423 2059.33,988.923 2066,982.5C 2067.37,977.397 2065.54,973.564 2060.5,971C 2046.18,964.005 2031.18,959.005 2015.5,956C 1851.38,922.689 1686.71,919.689 1521.5,947C 1469.24,955.398 1418.57,969.398 1369.5,989C 1352.67,997.055 1335.67,1004.72 1318.5,1012C 1298.1,1019.31 1277.44,1020.31 1256.5,1015C 1241.77,1007.73 1233.27,995.892 1231,979.5C 1229.29,957.713 1232.62,936.713 1241,916.5C 1257.57,877.669 1279.9,842.669 1308,811.5C 1382.98,730.725 1473.15,673.225 1578.5,639C 1675.33,611.131 1772,611.798 1868.5,641C 1943.35,664.759 2012.68,699.092 2076.5,744C 2144.68,791.726 2204.85,848.226 2257,913.5C 2274.5,935.818 2289.5,959.818 2302,985.5C 2305.58,994.4 2308.41,1003.4 2310.5,1012.5 Z"/></g>
</svg>
